<mxfile host="app.diagrams.net" agent="Mozilla/5.0 (X11; Linux x86_64) AppleWebKit/537.36 (KHTML, like Gecko) Chrome/130.0.0.0 Safari/537.36 Edg/130.0.0.0" version="24.8.4">
  <diagram id="UqtiB_08HVFXYnvLfDx0" name="Page-1">
    <mxGraphModel dx="1065" dy="750" grid="1" gridSize="10" guides="1" tooltips="1" connect="1" arrows="1" fold="1" page="1" pageScale="1" pageWidth="850" pageHeight="1100" math="0" shadow="0">
      <root>
        <mxCell id="0" />
        <mxCell id="1" parent="0" />
        <mxCell id="kxU1eR2FY8rgbBVHpL4p-27" value="" style="ellipse;fillColor=strokeColor;html=1;aspect=fixed;" vertex="1" parent="1">
          <mxGeometry x="200" y="320" width="40" height="40" as="geometry" />
        </mxCell>
        <mxCell id="kxU1eR2FY8rgbBVHpL4p-45" value="" style="endArrow=classic;html=1;rounded=0;fontStyle=0;exitX=0.5;exitY=1;exitDx=0;exitDy=0;entryX=0.5;entryY=0;entryDx=0;entryDy=0;" edge="1" parent="1" source="kxU1eR2FY8rgbBVHpL4p-27" target="kxU1eR2FY8rgbBVHpL4p-46">
          <mxGeometry width="50" height="50" relative="1" as="geometry">
            <mxPoint x="214.79999999999998" y="360" as="sourcePoint" />
            <mxPoint x="215" y="380" as="targetPoint" />
          </mxGeometry>
        </mxCell>
        <mxCell id="kxU1eR2FY8rgbBVHpL4p-46" value="1" style="ellipse;whiteSpace=wrap;html=1;aspect=fixed;" vertex="1" parent="1">
          <mxGeometry x="200" y="400" width="40" height="40" as="geometry" />
        </mxCell>
        <mxCell id="kxU1eR2FY8rgbBVHpL4p-47" value="true" style="html=1;verticalAlign=bottom;endArrow=block;curved=0;rounded=0;exitX=0;exitY=1;exitDx=0;exitDy=0;entryX=0.5;entryY=0;entryDx=0;entryDy=0;" edge="1" parent="1" source="kxU1eR2FY8rgbBVHpL4p-46" target="kxU1eR2FY8rgbBVHpL4p-50">
          <mxGeometry x="-0.0075" width="80" relative="1" as="geometry">
            <mxPoint x="370" y="490" as="sourcePoint" />
            <mxPoint x="160" y="480" as="targetPoint" />
            <mxPoint as="offset" />
          </mxGeometry>
        </mxCell>
        <mxCell id="kxU1eR2FY8rgbBVHpL4p-48" value="false" style="html=1;verticalAlign=bottom;endArrow=block;curved=0;rounded=0;exitX=1;exitY=1;exitDx=0;exitDy=0;entryX=0.5;entryY=0;entryDx=0;entryDy=0;" edge="1" parent="1" source="kxU1eR2FY8rgbBVHpL4p-46" target="kxU1eR2FY8rgbBVHpL4p-52">
          <mxGeometry x="-0.0075" width="80" relative="1" as="geometry">
            <mxPoint x="214" y="436" as="sourcePoint" />
            <mxPoint x="260" y="480" as="targetPoint" />
            <mxPoint as="offset" />
          </mxGeometry>
        </mxCell>
        <mxCell id="kxU1eR2FY8rgbBVHpL4p-49" value="" style="ellipse;html=1;shape=endState;fillColor=#000000;strokeColor=#ff0000;aspect=fixed;" vertex="1" parent="1">
          <mxGeometry x="200" y="560" width="40" height="40" as="geometry" />
        </mxCell>
        <mxCell id="kxU1eR2FY8rgbBVHpL4p-50" value="2" style="ellipse;whiteSpace=wrap;html=1;aspect=fixed;" vertex="1" parent="1">
          <mxGeometry x="160" y="480" width="40" height="40" as="geometry" />
        </mxCell>
        <mxCell id="kxU1eR2FY8rgbBVHpL4p-52" value="3" style="ellipse;whiteSpace=wrap;html=1;aspect=fixed;" vertex="1" parent="1">
          <mxGeometry x="240" y="480" width="40" height="40" as="geometry" />
        </mxCell>
        <mxCell id="kxU1eR2FY8rgbBVHpL4p-54" value="" style="endArrow=classic;html=1;rounded=0;fontStyle=0;exitX=0.5;exitY=1;exitDx=0;exitDy=0;entryX=0;entryY=0;entryDx=0;entryDy=0;" edge="1" parent="1" source="kxU1eR2FY8rgbBVHpL4p-50" target="kxU1eR2FY8rgbBVHpL4p-49">
          <mxGeometry width="50" height="50" relative="1" as="geometry">
            <mxPoint x="350" y="535" as="sourcePoint" />
            <mxPoint x="350" y="575" as="targetPoint" />
          </mxGeometry>
        </mxCell>
        <mxCell id="kxU1eR2FY8rgbBVHpL4p-57" value="" style="endArrow=classic;html=1;rounded=0;fontStyle=0;exitX=0.5;exitY=1;exitDx=0;exitDy=0;entryX=1;entryY=0;entryDx=0;entryDy=0;" edge="1" parent="1" source="kxU1eR2FY8rgbBVHpL4p-52" target="kxU1eR2FY8rgbBVHpL4p-49">
          <mxGeometry width="50" height="50" relative="1" as="geometry">
            <mxPoint x="320" y="490" as="sourcePoint" />
            <mxPoint x="320" y="530" as="targetPoint" />
          </mxGeometry>
        </mxCell>
        <mxCell id="kxU1eR2FY8rgbBVHpL4p-59" value="" style="ellipse;fillColor=strokeColor;html=1;aspect=fixed;" vertex="1" parent="1">
          <mxGeometry x="400" y="320" width="40" height="40" as="geometry" />
        </mxCell>
        <mxCell id="kxU1eR2FY8rgbBVHpL4p-60" value="" style="endArrow=classic;html=1;rounded=0;fontStyle=0;exitX=0.5;exitY=1;exitDx=0;exitDy=0;entryX=0.5;entryY=0;entryDx=0;entryDy=0;" edge="1" parent="1" source="kxU1eR2FY8rgbBVHpL4p-59" target="kxU1eR2FY8rgbBVHpL4p-61">
          <mxGeometry width="50" height="50" relative="1" as="geometry">
            <mxPoint x="374.79999999999995" y="360" as="sourcePoint" />
            <mxPoint x="375" y="380" as="targetPoint" />
          </mxGeometry>
        </mxCell>
        <mxCell id="kxU1eR2FY8rgbBVHpL4p-61" value="1" style="ellipse;whiteSpace=wrap;html=1;aspect=fixed;" vertex="1" parent="1">
          <mxGeometry x="400" y="400" width="40" height="40" as="geometry" />
        </mxCell>
        <mxCell id="kxU1eR2FY8rgbBVHpL4p-62" value="case 1" style="html=1;verticalAlign=bottom;endArrow=block;curved=0;rounded=0;exitX=0;exitY=1;exitDx=0;exitDy=0;entryX=0.5;entryY=0;entryDx=0;entryDy=0;" edge="1" parent="1" source="kxU1eR2FY8rgbBVHpL4p-61" target="kxU1eR2FY8rgbBVHpL4p-65">
          <mxGeometry x="-0.0075" width="80" relative="1" as="geometry">
            <mxPoint x="530" y="490" as="sourcePoint" />
            <mxPoint x="320" y="480" as="targetPoint" />
            <mxPoint as="offset" />
          </mxGeometry>
        </mxCell>
        <mxCell id="kxU1eR2FY8rgbBVHpL4p-63" value="case 2" style="html=1;verticalAlign=bottom;endArrow=block;curved=0;rounded=0;exitX=0.5;exitY=1;exitDx=0;exitDy=0;entryX=0.5;entryY=0;entryDx=0;entryDy=0;" edge="1" parent="1" source="kxU1eR2FY8rgbBVHpL4p-61" target="kxU1eR2FY8rgbBVHpL4p-66">
          <mxGeometry x="-0.0075" width="80" relative="1" as="geometry">
            <mxPoint x="374" y="436" as="sourcePoint" />
            <mxPoint x="420" y="480" as="targetPoint" />
            <mxPoint as="offset" />
          </mxGeometry>
        </mxCell>
        <mxCell id="kxU1eR2FY8rgbBVHpL4p-64" value="" style="ellipse;html=1;shape=endState;fillColor=#000000;strokeColor=#ff0000;aspect=fixed;" vertex="1" parent="1">
          <mxGeometry x="400" y="560" width="40" height="40" as="geometry" />
        </mxCell>
        <mxCell id="kxU1eR2FY8rgbBVHpL4p-65" value="2" style="ellipse;whiteSpace=wrap;html=1;aspect=fixed;" vertex="1" parent="1">
          <mxGeometry x="320" y="480" width="40" height="40" as="geometry" />
        </mxCell>
        <mxCell id="kxU1eR2FY8rgbBVHpL4p-66" value="3" style="ellipse;whiteSpace=wrap;html=1;aspect=fixed;" vertex="1" parent="1">
          <mxGeometry x="400" y="480" width="40" height="40" as="geometry" />
        </mxCell>
        <mxCell id="kxU1eR2FY8rgbBVHpL4p-67" value="" style="endArrow=classic;html=1;rounded=0;fontStyle=0;exitX=0.5;exitY=1;exitDx=0;exitDy=0;entryX=0;entryY=0;entryDx=0;entryDy=0;" edge="1" parent="1" source="kxU1eR2FY8rgbBVHpL4p-65" target="kxU1eR2FY8rgbBVHpL4p-64">
          <mxGeometry width="50" height="50" relative="1" as="geometry">
            <mxPoint x="510" y="535" as="sourcePoint" />
            <mxPoint x="510" y="575" as="targetPoint" />
          </mxGeometry>
        </mxCell>
        <mxCell id="kxU1eR2FY8rgbBVHpL4p-68" value="" style="endArrow=classic;html=1;rounded=0;fontStyle=0;exitX=0.5;exitY=1;exitDx=0;exitDy=0;entryX=0.5;entryY=0;entryDx=0;entryDy=0;" edge="1" parent="1" source="kxU1eR2FY8rgbBVHpL4p-66" target="kxU1eR2FY8rgbBVHpL4p-64">
          <mxGeometry width="50" height="50" relative="1" as="geometry">
            <mxPoint x="480" y="490" as="sourcePoint" />
            <mxPoint x="480" y="530" as="targetPoint" />
          </mxGeometry>
        </mxCell>
        <mxCell id="kxU1eR2FY8rgbBVHpL4p-69" value="4" style="ellipse;whiteSpace=wrap;html=1;aspect=fixed;" vertex="1" parent="1">
          <mxGeometry x="480" y="480" width="40" height="40" as="geometry" />
        </mxCell>
        <mxCell id="kxU1eR2FY8rgbBVHpL4p-70" value="case 3" style="html=1;verticalAlign=bottom;endArrow=block;curved=0;rounded=0;exitX=1;exitY=1;exitDx=0;exitDy=0;entryX=0.5;entryY=0;entryDx=0;entryDy=0;" edge="1" parent="1" source="kxU1eR2FY8rgbBVHpL4p-61" target="kxU1eR2FY8rgbBVHpL4p-69">
          <mxGeometry x="-0.0075" width="80" relative="1" as="geometry">
            <mxPoint x="442" y="420" as="sourcePoint" />
            <mxPoint x="470" y="466" as="targetPoint" />
            <mxPoint as="offset" />
          </mxGeometry>
        </mxCell>
        <mxCell id="kxU1eR2FY8rgbBVHpL4p-71" value="" style="endArrow=classic;html=1;rounded=0;fontStyle=0;exitX=0.5;exitY=1;exitDx=0;exitDy=0;entryX=1;entryY=0;entryDx=0;entryDy=0;" edge="1" parent="1" source="kxU1eR2FY8rgbBVHpL4p-69" target="kxU1eR2FY8rgbBVHpL4p-64">
          <mxGeometry width="50" height="50" relative="1" as="geometry">
            <mxPoint x="430" y="530" as="sourcePoint" />
            <mxPoint x="430" y="570" as="targetPoint" />
          </mxGeometry>
        </mxCell>
        <mxCell id="kxU1eR2FY8rgbBVHpL4p-82" value="" style="ellipse;fillColor=strokeColor;html=1;aspect=fixed;" vertex="1" parent="1">
          <mxGeometry x="78" y="320" width="40" height="40" as="geometry" />
        </mxCell>
        <mxCell id="kxU1eR2FY8rgbBVHpL4p-83" value="" style="endArrow=classic;html=1;rounded=0;fontStyle=0;exitX=0.5;exitY=1;exitDx=0;exitDy=0;entryX=0.5;entryY=0;entryDx=0;entryDy=0;" edge="1" parent="1" source="kxU1eR2FY8rgbBVHpL4p-82" target="kxU1eR2FY8rgbBVHpL4p-84">
          <mxGeometry width="50" height="50" relative="1" as="geometry">
            <mxPoint x="92.79999999999998" y="360" as="sourcePoint" />
            <mxPoint x="93" y="380" as="targetPoint" />
          </mxGeometry>
        </mxCell>
        <mxCell id="kxU1eR2FY8rgbBVHpL4p-84" value="1" style="ellipse;whiteSpace=wrap;html=1;aspect=fixed;" vertex="1" parent="1">
          <mxGeometry x="78" y="400" width="40" height="40" as="geometry" />
        </mxCell>
        <mxCell id="kxU1eR2FY8rgbBVHpL4p-87" value="" style="ellipse;html=1;shape=endState;fillColor=#000000;strokeColor=#ff0000;aspect=fixed;" vertex="1" parent="1">
          <mxGeometry x="78" y="560" width="40" height="40" as="geometry" />
        </mxCell>
        <mxCell id="kxU1eR2FY8rgbBVHpL4p-88" value="2" style="ellipse;whiteSpace=wrap;html=1;aspect=fixed;" vertex="1" parent="1">
          <mxGeometry x="78" y="480" width="40" height="40" as="geometry" />
        </mxCell>
        <mxCell id="kxU1eR2FY8rgbBVHpL4p-90" value="" style="endArrow=classic;html=1;rounded=0;fontStyle=0;entryX=0.5;entryY=0;entryDx=0;entryDy=0;" edge="1" parent="1" target="kxU1eR2FY8rgbBVHpL4p-87">
          <mxGeometry width="50" height="50" relative="1" as="geometry">
            <mxPoint x="98" y="520" as="sourcePoint" />
            <mxPoint x="228" y="575" as="targetPoint" />
          </mxGeometry>
        </mxCell>
        <mxCell id="kxU1eR2FY8rgbBVHpL4p-91" value="" style="endArrow=classic;html=1;rounded=0;fontStyle=0;exitX=0.5;exitY=1;exitDx=0;exitDy=0;entryX=0.5;entryY=0;entryDx=0;entryDy=0;" edge="1" parent="1" source="kxU1eR2FY8rgbBVHpL4p-84" target="kxU1eR2FY8rgbBVHpL4p-88">
          <mxGeometry width="50" height="50" relative="1" as="geometry">
            <mxPoint x="140" y="520" as="sourcePoint" />
            <mxPoint x="198" y="530" as="targetPoint" />
          </mxGeometry>
        </mxCell>
        <mxCell id="kxU1eR2FY8rgbBVHpL4p-92" value="Tuần tự" style="text;strokeColor=none;align=center;fillColor=none;html=1;verticalAlign=middle;whiteSpace=wrap;rounded=0;" vertex="1" parent="1">
          <mxGeometry x="53" y="610" width="90" height="30" as="geometry" />
        </mxCell>
        <mxCell id="kxU1eR2FY8rgbBVHpL4p-93" value="if else" style="text;strokeColor=none;align=center;fillColor=none;html=1;verticalAlign=middle;whiteSpace=wrap;rounded=0;" vertex="1" parent="1">
          <mxGeometry x="190" y="610" width="60" height="30" as="geometry" />
        </mxCell>
        <mxCell id="kxU1eR2FY8rgbBVHpL4p-94" value="switch case" style="text;strokeColor=none;align=center;fillColor=none;html=1;verticalAlign=middle;whiteSpace=wrap;rounded=0;" vertex="1" parent="1">
          <mxGeometry x="370" y="610" width="100" height="30" as="geometry" />
        </mxCell>
        <mxCell id="kxU1eR2FY8rgbBVHpL4p-95" value="while" style="text;strokeColor=none;align=center;fillColor=none;html=1;verticalAlign=middle;whiteSpace=wrap;rounded=0;" vertex="1" parent="1">
          <mxGeometry x="570" y="610" width="100" height="30" as="geometry" />
        </mxCell>
        <mxCell id="kxU1eR2FY8rgbBVHpL4p-96" value="do while" style="text;strokeColor=none;align=center;fillColor=none;html=1;verticalAlign=middle;whiteSpace=wrap;rounded=0;" vertex="1" parent="1">
          <mxGeometry x="700" y="610" width="100" height="30" as="geometry" />
        </mxCell>
        <mxCell id="kxU1eR2FY8rgbBVHpL4p-97" value="" style="ellipse;fillColor=strokeColor;html=1;aspect=fixed;" vertex="1" parent="1">
          <mxGeometry x="599" y="320" width="40" height="40" as="geometry" />
        </mxCell>
        <mxCell id="kxU1eR2FY8rgbBVHpL4p-98" value="" style="endArrow=classic;html=1;rounded=0;fontStyle=0;exitX=0.5;exitY=1;exitDx=0;exitDy=0;entryX=0.5;entryY=0;entryDx=0;entryDy=0;" edge="1" parent="1" source="kxU1eR2FY8rgbBVHpL4p-97" target="kxU1eR2FY8rgbBVHpL4p-99">
          <mxGeometry width="50" height="50" relative="1" as="geometry">
            <mxPoint x="573.8" y="360" as="sourcePoint" />
            <mxPoint x="574" y="380" as="targetPoint" />
          </mxGeometry>
        </mxCell>
        <mxCell id="kxU1eR2FY8rgbBVHpL4p-99" value="1" style="ellipse;whiteSpace=wrap;html=1;aspect=fixed;" vertex="1" parent="1">
          <mxGeometry x="599" y="400" width="40" height="40" as="geometry" />
        </mxCell>
        <mxCell id="kxU1eR2FY8rgbBVHpL4p-102" value="" style="ellipse;html=1;shape=endState;fillColor=#000000;strokeColor=#ff0000;aspect=fixed;" vertex="1" parent="1">
          <mxGeometry x="599" y="560" width="40" height="40" as="geometry" />
        </mxCell>
        <mxCell id="kxU1eR2FY8rgbBVHpL4p-104" value="2" style="ellipse;whiteSpace=wrap;html=1;aspect=fixed;" vertex="1" parent="1">
          <mxGeometry x="599" y="480" width="40" height="40" as="geometry" />
        </mxCell>
        <mxCell id="kxU1eR2FY8rgbBVHpL4p-111" value="" style="endArrow=classic;html=1;rounded=0;exitX=0;exitY=0.5;exitDx=0;exitDy=0;entryX=0;entryY=0.5;entryDx=0;entryDy=0;" edge="1" parent="1" source="kxU1eR2FY8rgbBVHpL4p-99" target="kxU1eR2FY8rgbBVHpL4p-102">
          <mxGeometry relative="1" as="geometry">
            <mxPoint x="595" y="420" as="sourcePoint" />
            <mxPoint x="595" y="580" as="targetPoint" />
            <Array as="points">
              <mxPoint x="580" y="420" />
              <mxPoint x="580" y="580" />
            </Array>
          </mxGeometry>
        </mxCell>
        <mxCell id="kxU1eR2FY8rgbBVHpL4p-112" value="false" style="edgeLabel;resizable=0;html=1;;align=center;verticalAlign=middle;" connectable="0" vertex="1" parent="kxU1eR2FY8rgbBVHpL4p-111">
          <mxGeometry relative="1" as="geometry" />
        </mxCell>
        <mxCell id="kxU1eR2FY8rgbBVHpL4p-115" value="" style="endArrow=classic;html=1;rounded=0;" edge="1" parent="1">
          <mxGeometry relative="1" as="geometry">
            <mxPoint x="640" y="500" as="sourcePoint" />
            <mxPoint x="640" y="420" as="targetPoint" />
            <Array as="points">
              <mxPoint x="660" y="500" />
              <mxPoint x="660" y="420" />
            </Array>
          </mxGeometry>
        </mxCell>
        <mxCell id="kxU1eR2FY8rgbBVHpL4p-117" value="true" style="html=1;verticalAlign=bottom;endArrow=block;curved=0;rounded=0;exitX=0.5;exitY=1;exitDx=0;exitDy=0;entryX=0.5;entryY=0;entryDx=0;entryDy=0;" edge="1" parent="1" source="kxU1eR2FY8rgbBVHpL4p-99" target="kxU1eR2FY8rgbBVHpL4p-104">
          <mxGeometry x="-0.0075" width="80" relative="1" as="geometry">
            <mxPoint x="484" y="670" as="sourcePoint" />
            <mxPoint x="550" y="716" as="targetPoint" />
            <mxPoint as="offset" />
          </mxGeometry>
        </mxCell>
        <mxCell id="kxU1eR2FY8rgbBVHpL4p-118" value="" style="ellipse;fillColor=strokeColor;html=1;aspect=fixed;" vertex="1" parent="1">
          <mxGeometry x="730" y="320" width="40" height="40" as="geometry" />
        </mxCell>
        <mxCell id="kxU1eR2FY8rgbBVHpL4p-119" value="" style="endArrow=classic;html=1;rounded=0;fontStyle=0;exitX=0.5;exitY=1;exitDx=0;exitDy=0;entryX=0.5;entryY=0;entryDx=0;entryDy=0;" edge="1" parent="1" source="kxU1eR2FY8rgbBVHpL4p-118" target="kxU1eR2FY8rgbBVHpL4p-120">
          <mxGeometry width="50" height="50" relative="1" as="geometry">
            <mxPoint x="704.8" y="360" as="sourcePoint" />
            <mxPoint x="705" y="380" as="targetPoint" />
          </mxGeometry>
        </mxCell>
        <mxCell id="kxU1eR2FY8rgbBVHpL4p-120" value="1" style="ellipse;whiteSpace=wrap;html=1;aspect=fixed;" vertex="1" parent="1">
          <mxGeometry x="730" y="400" width="40" height="40" as="geometry" />
        </mxCell>
        <mxCell id="kxU1eR2FY8rgbBVHpL4p-121" value="" style="ellipse;html=1;shape=endState;fillColor=#000000;strokeColor=#ff0000;aspect=fixed;" vertex="1" parent="1">
          <mxGeometry x="730" y="560" width="40" height="40" as="geometry" />
        </mxCell>
        <mxCell id="kxU1eR2FY8rgbBVHpL4p-122" value="2" style="ellipse;whiteSpace=wrap;html=1;aspect=fixed;" vertex="1" parent="1">
          <mxGeometry x="730" y="480" width="40" height="40" as="geometry" />
        </mxCell>
        <mxCell id="kxU1eR2FY8rgbBVHpL4p-123" value="" style="endArrow=classic;html=1;rounded=0;exitX=1.043;exitY=0.506;exitDx=0;exitDy=0;entryX=1;entryY=0.5;entryDx=0;entryDy=0;exitPerimeter=0;" edge="1" parent="1" source="kxU1eR2FY8rgbBVHpL4p-122" target="kxU1eR2FY8rgbBVHpL4p-120">
          <mxGeometry relative="1" as="geometry">
            <mxPoint x="780" y="500" as="sourcePoint" />
            <mxPoint x="780" y="420" as="targetPoint" />
            <Array as="points">
              <mxPoint x="801" y="500" />
              <mxPoint x="801" y="420" />
            </Array>
          </mxGeometry>
        </mxCell>
        <mxCell id="kxU1eR2FY8rgbBVHpL4p-124" value="false" style="edgeLabel;resizable=0;html=1;;align=center;verticalAlign=middle;" connectable="0" vertex="1" parent="kxU1eR2FY8rgbBVHpL4p-123">
          <mxGeometry relative="1" as="geometry" />
        </mxCell>
        <mxCell id="kxU1eR2FY8rgbBVHpL4p-126" value="false" style="html=1;verticalAlign=bottom;endArrow=block;curved=0;rounded=0;exitX=0.5;exitY=1;exitDx=0;exitDy=0;entryX=0.5;entryY=0;entryDx=0;entryDy=0;" edge="1" parent="1">
          <mxGeometry x="-0.0075" width="80" relative="1" as="geometry">
            <mxPoint x="749.75" y="520" as="sourcePoint" />
            <mxPoint x="749.75" y="560" as="targetPoint" />
            <mxPoint as="offset" />
          </mxGeometry>
        </mxCell>
        <mxCell id="kxU1eR2FY8rgbBVHpL4p-127" value="" style="endArrow=classic;html=1;rounded=0;fontStyle=0;exitX=0.5;exitY=1;exitDx=0;exitDy=0;entryX=0.5;entryY=0;entryDx=0;entryDy=0;" edge="1" parent="1" source="kxU1eR2FY8rgbBVHpL4p-120" target="kxU1eR2FY8rgbBVHpL4p-122">
          <mxGeometry width="50" height="50" relative="1" as="geometry">
            <mxPoint x="831" y="470" as="sourcePoint" />
            <mxPoint x="831" y="510" as="targetPoint" />
          </mxGeometry>
        </mxCell>
      </root>
    </mxGraphModel>
  </diagram>
</mxfile>
